<svg id="_1" data-name="1" xmlns="http://www.w3.org/2000/svg" viewBox="0 0 800 800"><defs><style>.cls-1{fill:#38201d;fill-rule:evenodd;}.cls-2{fill:#c7422a;}.cls-3{fill:#fff;}</style></defs><title>depilation_new</title><path class="cls-1" d="M281.94,637.41c2.51-5.35,4-10.69,5.59-17,7.66-29.78,2.45-63.3-14.35-88.62a129.73,129.73,0,0,0-9.51-13c-3.84-4.41-7-7.32-10.9-11.12-1-12.5,0-60.45,2.62-71.94l87.75.21c-1.15,7.55-4.41,17.91-6.35,26-8.91,37-18.12,87-22.43,125.2-.26,2.34-.54,4.9-.75,7.2-.37,4.09.07,4-2.21,6.12A114.69,114.69,0,0,0,289.17,628c-1.18,2-1.83,3.38-2.83,5.35-1.12,2.21-2,3.52-2.9,5.5-1,2.16-8.62,20.74-9.74,40.87C269.6,753.11,337.44,810,410.78,798.52c20.76-3.25,39.58-11.34,54.64-23.64,14.77-12.06,25.54-24.34,34-43a116.3,116.3,0,0,0,10.06-41.26,110.8,110.8,0,0,0-6.81-44.49c-12.19-31.38-28.94-41.8-31-45.94-2.66-5.35,1.58-65.94,2.2-73.53,1.24-15.29,3-30.93,4.94-46.26,1.39-11,3.88-35.13,7-44.53l71.86-.07c-.52,6.74-3,16.54-4.21,23.52-1.45,8.15-2.79,16.18-4.05,24.44l-4.9,37.5c-.85,7.9.12,5.9-4.46,10-21.06,18.88-34.62,50.68-35.68,79C502,674.43,554.21,726,616.54,728.82c66.71,3,118.81-46,123.58-106.4A110.34,110.34,0,0,0,723.17,554c-10.48-16.54-13.37-15.44-20-23.66-3.9-4.83,1.27-85,3.58-94.43,10.29-1.1,41.77-.15,54.25-.15,8.26,0,19,1.58,23.87-3.3,5.76-5.81,1.48-14.93-6.6-15.76l-81.6.05c-8.65,1.15-8.74,9.17-9.63,17.47-1.75,16.35-7.58,90.54-4,102.23,1.18,3.86,9.64,10.72,12.88,13.76,13.65,12.8,23.37,37.49,24.72,57,4.15,60.18-49,110.73-112.67,101.65-73.38-10.46-113.62-96.51-57.69-160.28a46.36,46.36,0,0,1,6.72-6.27c9.14-7,6.75-18.15,8.51-32.11,2.92-23.17,6.78-46,11.18-68.79,1.32-6.82,5-16.6.42-21.65-4.35-4.75-16.07-3.15-23.77-3.15-13.6,0-75.88-1.54-80.93,1.4-5.41,3.15-5.61,11.85-6.92,19.54-4,23.73-7.1,47.54-9.61,71.51-1.43,13.69-7.6,93.91-2.42,100.74,2,2.68,4.5,4.39,6.7,6.28,2.57,2.2,4.18,4.51,6.62,7,3.85,4,8.1,10.36,11.27,16a94.31,94.31,0,0,1,12,42.67c1.83,59.09-52.46,109.36-116.41,97.47a98.89,98.89,0,0,1-65.19-43c-15.31-23.59-20.52-55.82-8.83-85.2,14-35.12,31.28-35.38,32.68-47.61,6.27-54.82,15.23-106.36,29-159.43,1.36-5.25,5.55-16.6,3.74-21.38-2.94-7.74-12.33-6.07-21.45-6.07H261.25c-28.32,0-25.32-3.54-27.63,53.29l-.47,39.19c0,11.71,6.47,11,16.53,23.39,23.45,28.78,28.51,69.21,11.5,102.68a93.28,93.28,0,0,1-10.37,16.22C228.93,679,190.56,694,153.74,686.65c-61.29-12.28-94.4-74.46-72.12-129.38,7.27-17.9,16.33-27,28.38-38.46,3.49-3.31,3.37-3.89,3.92-9.73,2.24-23.56,5.8-47.23,10-70.46,1.56-8.65,4.58-15.59-2.22-20.3-4.5-3.11-19.51-1.76-25.88-1.76l-81.68,0c-8.58,0-16.82,3.26-13.3,13,2.68,7.44,12.45,6.19,20.92,6.19,14.54,0,73.06-.85,82.62.14-.46,8.71-3.68,22.44-5.09,31.95-1.67,11.25-3.34,22.86-4.34,34.19-.67,7.6-3.09,6.2-7.69,11.45-9.53,10.89-16.74,20.37-23.12,34.82a113.21,113.21,0,0,0-7.19,65.39c6.13,30.93,21.75,53.4,45.05,70.82,25.76,19.26,59.5,27.25,93.14,21.14,34.94-6.35,63.7-26.74,80.1-55.46C277.41,646.42,280.35,640.81,281.94,637.41Z"/><path class="cls-1" d="M391.38,752.65c65.78-.13,94.16-79.22,44.24-120.06C422,621.44,422.69,619,422.69,596.08c0-100.4,16.8-203.74,44.92-295.47,19.34-63.08,41.33-120.09,72.17-177.28l22.46-40.2c2.42-4.06,6.11-9.27,7.88-13.39-3.67,3.12-23.56,31.82-26.34,35.88-8.35,12.17-17.21,24.69-25,37.69-17.37,28.94-29.65,49-45.06,80.23a1173.12,1173.12,0,0,0-70.82,179.32c-19.41,64.28-35.66,136.53-42,206.72-1,11.49-3.75,15.94-10.41,20.87C295.82,670.95,326.68,752.78,391.38,752.65Z"/><path class="cls-1" d="M653.4,525.9C653.4,426.09,670,322,697.94,231c23.83-77.74,47.52-135.13,86.43-203.87L800,0a4.88,4.88,0,0,0-1.29,1.14c-10.75,10.91-53.79,78.43-62.5,93-72.45,121.35-132,300.39-144.55,444.67-1.33,15.31-6.5,17.52-15.15,24.48-12.54,10.1-25.42,30.75-23.3,55.74,6,70.83,105.31,85.91,133.2,21.06,11-25.48,4.47-55.92-14.49-73.24-1.71-1.56-2.88-3.28-4.8-4.76s-4.34-3-5.93-4.35C653.3,550.91,653.4,538.93,653.4,525.9Z"/><rect class="cls-2" x="70.94" y="97.12" width="399.52" height="90.64" rx="35.5" ry="35.5" transform="translate(-33.78 113.1) rotate(-22.25)"/><path class="cls-3" d="M148.15,216.2l-4.69-26L134.11,194l4.69,26-9.16,3.75-8.48-47.05a15.69,15.69,0,0,0-4.4,8,16.42,16.42,0,0,0,1.19,9.6,8.59,8.59,0,0,0,2.37,3.57,1.08,1.08,0,0,1,.3.38q-5.16,2.11-7.7-.66a9.18,9.18,0,0,1-1.63-2.74,11.6,11.6,0,0,1-.5-7q1.59-7.72,8.63-14a25.65,25.65,0,0,1,7.41-4.66q1.31-.53,2.6-.92l3.68,20.62,9.35-3.83-3.68-20.62,9.16-3.75,9.37,51.72Z"/><path class="cls-3" d="M173.33,150.2q15.07-6.16,21.73,10.11a43.62,43.62,0,0,1,2.89,22.75,24.52,24.52,0,0,1-6.42,14.09,17.68,17.68,0,0,1-6.08,4.23,19.22,19.22,0,0,1-5.7,1.53q-7.74.48-11.75-9.3a47.92,47.92,0,0,1-3.25-15q-1-13.53,4.6-19.43a10.07,10.07,0,0,1,3.57-2.48,10.56,10.56,0,0,1,3.65-.88q-2.09,2.78-2.58,9.29a59.12,59.12,0,0,0,1.77,19.3,39.61,39.61,0,0,0,1.76,5.55q3,7.36,6.71,5.85l.06,0q3.08-1.26,4.32-7a42.77,42.77,0,0,0,.46-13.37,49.58,49.58,0,0,0-3.28-13.74q-2.5-6.1-5.24-8t-7.53,0a21,21,0,0,0-11.14,9.83,16,16,0,0,0-.5,14,6.54,6.54,0,0,0,1.34,2.34,2.4,2.4,0,0,1,.71.81,8.65,8.65,0,0,1-5.26.74q-2.16-.53-3.43-3.64a12,12,0,0,1-.44-7.11q1.81-8.43,10-15.19A35.29,35.29,0,0,1,173.33,150.2Z"/><path class="cls-3" d="M232.56,162.45q-3.32-8.11-9.34-5.64a22.36,22.36,0,0,0-2.83,1.41l4.74,26.49L216,188.46l-7.92-44,8.9-5.09,2.79,15.32.37-.15a8.82,8.82,0,0,0,5.07-5.92,11.65,11.65,0,0,0-.12-8.15A6.72,6.72,0,0,0,218,136a12.11,12.11,0,0,0-3.91.95,20,20,0,0,0-3.8,2,17.88,17.88,0,0,0-3.14,2.75,16.47,16.47,0,0,0-4,7.92,16.15,16.15,0,0,0,1.14,9.34,8.59,8.59,0,0,0,2.37,3.57,1.08,1.08,0,0,1,.3.38q-5,2.06-7.61-.51a7.68,7.68,0,0,1-1.58-2.54,12.64,12.64,0,0,1-.7-7.13,21.5,21.5,0,0,1,2.9-7.44,28.89,28.89,0,0,1,14-11.74q6.65-2.72,11.3-1.2a9.83,9.83,0,0,1,6.39,5.78,11.75,11.75,0,0,1,.67,6.25,13.49,13.49,0,0,1-2.91,6.45,9.1,9.1,0,0,1,7.15,1.25A12.87,12.87,0,0,1,241.1,158a29.81,29.81,0,0,1,1.57,5.7,19.24,19.24,0,0,1-2.12,13.6,11.81,11.81,0,0,1-5.94,4.75q-4.12,1.68-6.56,0a4.67,4.67,0,0,1-1.62-2.18,11.55,11.55,0,0,1-.69-4q3.08,1.42,5,.62,3.36-1.37,3.46-6A20,20,0,0,0,232.56,162.45Z"/><path class="cls-3" d="M277.82,163.15l-6.45-35.55L265.92,168l-9.16,3.75-8.48-47.05a15.69,15.69,0,0,0-4.4,8,16.42,16.42,0,0,0,1.19,9.6,8.59,8.59,0,0,0,2.37,3.57,1.08,1.08,0,0,1,.3.38q-5.16,2.11-7.7-.66a9.18,9.18,0,0,1-1.63-2.74,11.6,11.6,0,0,1-.5-7q1.59-7.72,8.63-14a25.65,25.65,0,0,1,7.41-4.66q1.31-.53,2.6-.92l6.68,36.8,5.22-41.67,9.16-3.75L287,159.41Z"/><path class="cls-3" d="M321.53,145.27l-4.69-26-9.35,3.83,4.69,26L303,152.85l-8.48-47.05a15.69,15.69,0,0,0-4.4,8,16.42,16.42,0,0,0,1.19,9.6,8.59,8.59,0,0,0,2.37,3.57,1.08,1.08,0,0,1,.3.38q-5.16,2.11-7.7-.66a9.18,9.18,0,0,1-1.63-2.74,11.6,11.6,0,0,1-.5-7q1.59-7.72,8.63-14a25.65,25.65,0,0,1,7.41-4.66q1.31-.53,2.6-.92L306.49,118l9.35-3.83-3.68-20.62,9.16-3.75,9.37,51.72Z"/><path class="cls-3" d="M369.32,127q-5.37,2.2-7.05-1.9a40.33,40.33,0,0,1-1.73-9.06,40.22,40.22,0,0,0-1.8-9.22q-1.77-4.32-5.59-2.75a11.84,11.84,0,0,0-2,1.1l4.72,26.07L346.73,135l-8.48-47.05a15.69,15.69,0,0,0-4.4,8,16.42,16.42,0,0,0,1.19,9.6,8.59,8.59,0,0,0,2.37,3.57,1.08,1.08,0,0,1,.3.38q-5.16,2.11-7.7-.66a9.18,9.18,0,0,1-1.63-2.74,11.6,11.6,0,0,1-.5-7q1.59-7.72,8.63-14a25.65,25.65,0,0,1,7.41-4.66q1.31-.53,2.6-.92l3.71,20.68A47.91,47.91,0,0,1,351.39,87q1.51-6.67,3.64-9.32a11.21,11.21,0,0,1,4.27-3.52,5.35,5.35,0,0,1,3.47-.48,4.26,4.26,0,0,1,3,2.33q1.11,2.7.32,4.29a4.58,4.58,0,0,1-2.46,2.28,4,4,0,0,1-4.8-1q-4.57,6-5,19,.75-.38,1.4-.65l1.24-.51q6.37-2.61,9.2,1a11.16,11.16,0,0,1,1.58,2.8,38.24,38.24,0,0,1,1.81,8.87,40.12,40.12,0,0,0,1.46,8q1.44,3.51,4.3,3.43A27.06,27.06,0,0,1,369.32,127Z"/><path class="cls-3" d="M391.47,114.12a35.63,35.63,0,0,0,1.76,6.08,6.27,6.27,0,0,0,2.37,3.22,13.8,13.8,0,0,1-5.63,1.4q-3.89-.29-5.67-4.64-2.69-6.59-2-20.79.18-4.43.78-8.91a18.26,18.26,0,0,0-4.52,2.92A4.4,4.4,0,0,0,377,96.8q.25-.1.79.42a4.22,4.22,0,0,1,.92,1.45,2.06,2.06,0,0,1-.39,2,5.12,5.12,0,0,1-2.34,1.74,4.45,4.45,0,0,1-3.08.17,3.49,3.49,0,0,1-2.21-2.18q-1.36-3.32,1.35-7.15a18.8,18.8,0,0,1,8.35-6.1q1.27-.52,3.4-1.17,2.91-16.39,9.4-24a13.57,13.57,0,0,1,5.2-3.87A12.59,12.59,0,0,1,403.62,57l9.18,50.9-9.16,3.75-4.53-25.09a28.54,28.54,0,0,0-9.48,1.2A109.31,109.31,0,0,0,391.47,114.12Zm-1.63-29.61a44.71,44.71,0,0,1,8.67-1l-3.38-18.82Q390.88,69.94,389.84,84.51Z"/></svg>