<svg id="Слой_1" data-name="Слой 1" xmlns="http://www.w3.org/2000/svg" viewBox="0 0 300 300"><defs><style>.cls-1{fill:none;stroke:#39211e;stroke-miterlimit:10;stroke-width:6px;}.cls-2{fill:#39211e;}</style></defs><title>косметология</title><path class="cls-1" d="M249.58,121.62C244.79,10,186.49,3.5,150,3.5S55.21,10,50.42,121.62s33.32,120,33.32,120l66.36,3,66-3S254.38,233.28,249.58,121.62Z"/><path class="cls-2" d="M87.16,174s38.33.82,44.48-1.9C131.64,172.09,104.55,199.27,87.16,174Z"/><path class="cls-2" d="M211,174s-38.33.82-44.48-1.9C166.54,172.09,193.63,199.27,211,174Z"/><path class="cls-2" d="M150,86.81c-46.3,0-83.84,47.39-83.84,105.84S103.7,298.5,150,298.5s83.84-47.39,83.84-105.84S196.3,86.81,150,86.81ZM80.94,177.15a28.91,28.91,0,1,1,28.91,28.55A28.73,28.73,0,0,1,80.94,177.15Zm41.45,74.75s13.8-10,27.32-3.28c0,0,9.82-7.1,27.75,3.28C177.45,251.9,152.55,269.78,122.38,251.9Zm67.7-46.2A28.55,28.55,0,1,1,219,177.15,28.73,28.73,0,0,1,190.09,205.7Z"/><path class="cls-2" d="M82.18,26.13S96.49,53,124.69,57.78c15.65,2.68,56,29.25,74.32,51.6,0,0-42.24-40.13-78.28-41.63C88.28,66.41,69.5,42.62,69.5,42.62Z"/></svg>