<svg id="Слой_1" data-name="Слой 1" xmlns="http://www.w3.org/2000/svg" viewBox="0 0 300 300"><defs><style>.cls-1,.cls-2{fill:#372623;}.cls-1{fill-rule:evenodd;}</style></defs><title>глаза брови</title><path class="cls-1" d="M280.26,142.29C229.92,138.24,173,34.9,10.82,129.28c0,0,31.74-34.54,69.86-49.46C190.89,36.68,356.19,148.4,280.26,142.29Z"/><path class="cls-2" d="M270.34,209a1.06,1.06,0,0,0-.19-.58c-7.35-10.5-15.45-18.22-24.15-27.05-.61-.62-2.79-2.82-3.44-3.4a29.06,29.06,0,0,1,2.33-12.56l.3-.61.17-.34a21,21,0,0,1,2.86-3.89l1.3-1.46s-.67.07-1.93.31a14.46,14.46,0,0,0-5.18,2.06c-.28.2-.58.45-.88.68l-.8.65a16.27,16.27,0,0,0-4.07,5.17,21.26,21.26,0,0,0-1.45,3.66q-4.09-3.34-8.39-6.42a22.31,22.31,0,0,1-.71-6,29.23,29.23,0,0,1,.47-4.08l.45-2.05c.2-.78.43-1.54.67-2.25a38.87,38.87,0,0,1,2.61-5.71l1.24-2.08s-.77.36-2.16,1.15a23.87,23.87,0,0,0-5.23,4.44,22.19,22.19,0,0,0-1.54,2l-1.24,2a24.31,24.31,0,0,0-2.19,5.46c-.14.57-.25,1.16-.35,1.76a136.11,136.11,0,0,0-13.07-7.24,41,41,0,0,1-1.71-6.06c-.07-.33-.11-.64-.17-1l-.56-3.88a40,40,0,0,1-.08-7.27,25,25,0,0,1,2-8.17,16.86,16.86,0,0,1,1.1-2.12l.42-.75-.68.51a14,14,0,0,0-1.9,1.6,21.93,21.93,0,0,0-5,7.92,32.32,32.32,0,0,0-1.65,6.11l-.45,3.85a35.74,35.74,0,0,0,0,4c0,.49.06,1,.1,1.49-2.24-.87-4.5-1.68-6.79-2.4-3-1-6.13-1.75-9.25-2.43-.89-1.52-1.72-3-2.47-4.55l-.41-.89L176,133.25l-.29-.79a57.47,57.47,0,0,1-2-6.46l-.41-1.48c-.08-.49-.16-1-.25-1.43l-.47-2.64a27.49,27.49,0,0,1-.54-4.3l-.35-3.77s-.36,1.28-.94,3.68a23.52,23.52,0,0,0-.79,4.44l-.27,2.83c0,.51-.09,1-.13,1.56s0,1.08,0,1.63c.08,1.69.07,3.55.3,5.49l.89,5.31c0,.21.07.42.12.63l1.23,4.23.12.33a146,146,0,0,0-15.55-1.25q-1-.91-1.92-1.89a53.36,53.36,0,0,1-3.59-4l-4.45-6.2c-1.17-1.82-2.23-3.61-3.19-5.29a127.77,127.77,0,0,1-5.91-12.05l-1.93-4.61s.16,1.78.68,5a83.92,83.92,0,0,0,3.37,13.41c.37,1.06.79,2.16,1.23,3.29l2.79,6.23a54.44,54.44,0,0,0,3.65,6.12c-4.38.09-8.75.32-13.07.64-1.15-.72-2.28-1.45-3.36-2.21-1.87-1.25-3.61-2.59-5.27-4l-7.06-6.32c-1.85-1.82-3.57-3.6-5.1-5.36a127.23,127.23,0,0,1-9.93-12.79l-3.32-5,.54,1.47c.38,1,.86,2.4,1.65,4.19a94.1,94.1,0,0,0,7.78,14.72c.7,1.1,1.47,2.22,2.29,3.36l5.13,6.51c1.89,2.1,3.93,4.28,6.2,6.37-3.16.35-6.36.83-9.61,1.41-1.36-.32-2.71-.66-4-1-1.52-.34-3-.89-4.41-1.3s-2.9-.82-4.27-1.37c-1-.38-1.93-.72-2.88-1.07L86.5,134.3l-.33-.15c-2.38-1.06-4.59-2.22-6.69-3.33a111.26,111.26,0,0,1-18.84-12.6c-2.14-1.66-3.69-3.09-4.8-4l-1.67-1.41,1.42,1.67c1,1.07,2.27,2.74,4.17,4.71.65.71,1.38,1.48,2.16,2.28,1.17,1.3,2.59,2.8,4.32,4.46s3.92,3.91,6.41,6l3.87,3.36c.44.37.92.74,1.39,1.11l8,6c1.63,1.12,3.33,2.24,5.07,3.4,1.3.81,2.69,1.6,4.07,2.4-1.85.06-3.7.09-5.52.09a175.8,175.8,0,0,1-18.24-1.07l-1.08-.13-17.3-2.83c-4.35-.93-8.42-2-12.12-3.11a116.89,116.89,0,0,1-19.6-7.9c-2.24-1.14-3.87-2.25-5-2.89l-1.76-1,1.55,1.32c1,.83,2.49,2.22,4.56,3.72.69.51,1.46,1,2.27,1.6l.36.35c1.59,1.27,3.57,2.81,5.95,4.52a96.28,96.28,0,0,0,8.54,5c1.54.81,3.17,1.61,4.88,2.39l11.2,4.55q3.72,1.34,7.72,2.59l1.74.52a142.26,142.26,0,0,1-23.61,2.7s-13.18-.29-17.68-.85c-1.69-.21-10.63.32-21.4-11.46C0,145.78,7,170.52,51.13,177.95c3.47,12.88,13.75,26.64,22.79,33.86,14.79,11.82,38.57,17.31,58.28,17.56,1.74.19,3.49.35,5.23.45,21.11,1.28,40-1.73,60.39-7.26,23-6.26,47.1-17.18,71.15-11.95A1.19,1.19,0,0,0,270.34,209Zm-105.6-17.3a4.22,4.22,0,1,1-4.09,4.29A4.19,4.19,0,0,1,164.74,191.69ZM264.53,206c-.16.18-8.32-1.55-12.64-1.48-10.06.16-20.5,2.84-28.77,4.87-22.36,5.5-46.2,15-69.39,14.57-14.62-.24-30.61-2.52-44.48-7.86a88.91,88.91,0,0,1-23.75-16.76c-6.73-6.56-5.71-4.66-10-12.22,15.86-7.93,32.39-15,51.29-19.6,1.06-.26,2.16-.42,3.23-.63a36,36,0,0,0,19.84,55.35c-10.33-3.72-18.26-13.56-21-24.66-.95-16.58,6.24-22.49,11.63-22.38a18.49,18.49,0,0,1,4.14.51,7.3,7.3,0,1,1,7,9.86A7.2,7.2,0,0,1,146,183a14.9,14.9,0,0,0-1.58,6.95,14.57,14.57,0,1,0,29.13-.5,14.88,14.88,0,0,0-2-7.21c4.84-1.88,9.11-3.63,13.85.67,6,5.45,3.47,14.92.72,23.38-4.24,7.57-11,13.66-19.05,16.22A36.05,36.05,0,0,0,185,163.33c17.15.21,48.26,17.49,67.76,32.49C257.44,199.43,264.78,205.72,264.53,206Z"/></svg>