<svg id="Слой_1" data-name="Слой 1" xmlns="http://www.w3.org/2000/svg" viewBox="0 0 300 300"><defs><style>.cls-1{fill:#39211e;}</style></defs><title>визаж</title><path class="cls-1" d="M32.32,132.23c-3.52-5.71-13.7-22.89-13.7-22.89S8,126.53,4.93,132.23C19.55,128.76,19.55,137.68,32.32,132.23Z"/><path class="cls-1" d="M0,141.29V295c5.85,7,30.66,6.35,37.24,0V141.29C26.9,149.27,7.49,136,0,141.29Zm11.38,21L5.17,276V154.26s18.62,4,26.9,0C32.07,154.26,27.93,162.25,11.38,162.25Z"/><path class="cls-1" d="M211,280c-3.15,0-5.8.84-6.8,2H108.18c-1-1.16-3.65-2-6.8-2-4,0-7.24,1.34-7.24,3s3.24,3,7.24,3c3.15,0,5.8-.84,6.8-2h96.06c1,1.16,3.65,2,6.8,2,4,0,7.24-1.34,7.24-3S215,280,211,280Z"/><path class="cls-1" d="M237.31,218.73A11.83,11.83,0,0,0,228,208.16a11.83,11.83,0,0,0,9.27-10.56L242,130.53A11.91,11.91,0,0,0,229.92,118L83.51,118A11.9,11.9,0,0,0,71.4,130.69l6,67.11a11.84,11.84,0,0,0,9.26,10.36,11.84,11.84,0,0,0-9.26,10.36l-6,67.11a11.9,11.9,0,0,0,12.11,12.73l146.41,0A11.91,11.91,0,0,0,242,285.79ZM98.43,128.31l116.5,0a7.58,7.58,0,0,1,7.71,8l-3.87,54.91a7.63,7.63,0,0,1-7.72,7H103.31a7.63,7.63,0,0,1-7.71-6.83l-4.88-54.94A7.57,7.57,0,0,1,98.43,128.31ZM217.26,237.09H167.57c-2.42,0-4.32-1.44-4.11-3.13l2-16.49c.18-1.49,2-2.63,4.11-2.63h46.06c2.17,0,4,1.17,4.11,2.68l1.6,16.47C221.53,235.68,219.64,237.09,217.26,237.09Zm4.11,11.32-1.6,17.74c-.15,1.63-1.95,2.89-4.11,2.89H169.6c-2.14,0-3.93-1.23-4.11-2.84l-2-17.75c-.21-1.81,1.69-3.37,4.11-3.37h49.68C219.64,245.1,221.53,246.62,221.37,248.41Zm-74.46-11.32H97.23c-2.42,0-4.32-1.44-4.11-3.13l2-16.49c.18-1.49,2-2.63,4.11-2.63h46.06c2.17,0,4,1.17,4.11,2.68L151,234C151.19,235.68,149.3,237.09,146.91,237.09ZM151,248.46l-2,17.75c-.18,1.6-2,2.84-4.11,2.84H98.83c-2.17,0-4-1.26-4.11-2.89l-1.6-17.74c-.16-1.79,1.73-3.31,4.11-3.31h49.68C149.33,245.09,151.23,246.64,151,248.46Zm76.57,34.69a5,5,0,0,1-5,4.87H91.94a5,5,0,0,1-5-4.87v-.25a5,5,0,0,1,5-4.87h130.6a5,5,0,0,1,5,4.87Z"/><path class="cls-1" d="M159.31,51.46a28.92,28.92,0,0,1,.92-7.1c-13.58,3.19-23.67,15-23.67,29.06,0,16.54,13.89,29.94,31,29.94,14.6,0,26.81-9.74,30.12-22.84a32.08,32.08,0,0,1-7.36.88C173.2,81.4,159.31,68,159.31,51.46Z"/><path class="cls-1" d="M160.86,12.53c-41.42,0-75,32.4-75,72.36a69.91,69.91,0,0,0,5.22,26.52h26.7a47.5,47.5,0,0,1-9.16-28c0-27,22.69-48.91,50.69-48.91S210,56.39,210,83.4a47.5,47.5,0,0,1-9.18,28h29.8a69.91,69.91,0,0,0,5.24-26.56C235.86,44.93,202.28,12.53,160.86,12.53Z"/><path class="cls-1" d="M300,83.4c-151-187.64-279.31,0-279.31,0C166.55-53.34,300,83.4,300,83.4Z"/><path class="cls-1" d="M20.69,83.84A239.27,239.27,0,0,0,69.35,133.4l-.44-5A11.66,11.66,0,0,1,70.78,121,255,255,0,0,1,20.69,83.84Z"/><path class="cls-1" d="M243.75,123.18a11.62,11.62,0,0,1,.78,5.09l-.71,10c18.22-12.87,37-30.63,56.18-54.44C300,83.84,278.66,105.68,243.75,123.18Z"/></svg>