<svg id="_1" data-name="1" xmlns="http://www.w3.org/2000/svg" viewBox="0 0 800 800"><defs><style>.cls-1{fill:#39201d;}.cls-2{fill:#c7422a;}.cls-3{fill:#fff;}</style></defs><title>hair_new</title><path class="cls-1" d="M467.43,680.26s-91.54-32.78-96.78-33.42-43.51,3.37-54.83-26.56-22.89,3.57-54.43-13.94-36-48.51-37.36-58.05S156,515,111.83,562.37c-1.44,1.55-20.53,2.11-51.24-27.6,0,0-8,7.22-12.54,21.83S68.31,560.28,98.51,578c13.8,8.09,8.22,37.67,27.84,52.83,20.43,15.8,51.7,22.66,93.12-1.85,42.42-25.1,100.86,6.46,108.68,25,0,0,4.82,36.79,28.09,42.43s97.08,29,97.08,29l0-.08L752.5,800ZM226.24,595.07c-2.28,23.61-22.13,34.72-55,37.19-29.14,2.19-54.6-23.36-51.88-46.93C121.7,565,150.94,541.83,177,544.6,208.62,547.95,228.53,571.45,226.24,595.07ZM438.93,697.23c-3,9.72-13.11,15.05-22.44,11.88S402,695.46,405.08,685.74s13.11-15.05,22.44-11.88S442,687.51,438.93,697.23Z"/><path class="cls-1" d="M426.75,676.31a15.22,15.22,0,0,0-19.32,10.23c-2.62,8.37,1.79,17.4,9.82,20.13a15.22,15.22,0,0,0,19.32-10.23C439.19,688.06,434.79,679,426.75,676.31Z"/><path class="cls-1" d="M200.46,664.48c-35-16.12-81.18-17.57-96.15,26.33-13.17,38.62,35.5,67.06,64.13,70.82,0,0,44.48,6.59,53.1-7.92,0,0-9.29-24.33,24.92-56.18,24.77-23.06,84.65-7,106.56,1.3l3.24.63c-5.21-1.24-21.51-7-27.54-31.7-.41-1.65-60.49,10.65-60.49,10.65S235.43,680.6,200.46,664.48Zm-15.29,6.88c36.52,16.06,26.46,47.68,22.3,59.5,0,0-10.15,28.15-49.63,16.21-33.27-10.06-47.07-26.14-43.56-48.63C118.28,672.73,142.95,652.79,185.18,671.36Z"/><path class="cls-1" d="M253.54,507.82c.67-.46,1.24-1,1.88-1.5-7.53,1.28-15.27,1.05-21.66-1.89a15.46,15.46,0,0,1-3.83-1.63c-4.15-2.55-7.39-7.3-7.24-12.36a13.79,13.79,0,0,1,2.25-7.1c3.66-11.05,21.2-21.15,28.86-25.68,28.51-16.86,62.21-7,93-3.77a168.24,168.24,0,0,0,34.56-.11l.25.44c-20.2,3.87-40.75,4.68-62.39,4.74-19.74.06-40.24,3.12-49.18,22.72a4.57,4.57,0,0,0-.25,3.09c14.73-5.13,29.91-6.22,45.13-5.25,22.78-.37,45.7,4.11,68.33,3.72C365,492,344.67,501.13,328.33,503.74c-.43-.1-.86-.27-1.29-.38-9.5,2.84-24-.59-30.46-7.61,2.36,7.46,9.14,12.34,16.8,15.36,11.29,11.32,28.68,9.27,45.57,3.57l.21,0c10.9-1.66,22-4.1,32.2-8.2-16.49,17.48-37.44,32.51-59.14,40.74-26.1,13.54-60.07,18-80.8-1.32,0,2.23,0,4.46.19,6.67,8.59,27,43,36.56,69,36.13,33.56-.56,61.77-21.11,80.53-47.58,26.35-17.14,71.7-40,89.53-8.55L416.6,605.16a199.05,199.05,0,0,1,24.94-1.62A196.46,196.46,0,0,1,540,629.83c8.54-13.76,34-36.31,61.15-28.67,1.45.77,2.92,1.51,4.36,2.28,1.15.73,2.31,1.43,3.46,2.15,3.89,2.67,7.48,5.73,11.36,8.34,6.89,6.39,17.8,13.84,26,6.6,4.78-4.22,6.83-8.63,7.54-12.53a19.36,19.36,0,0,0,.92-5.14s0,0,0,0c.32-1.44.6-2.9.82-4.37,2.34.49,4.84.46,7.2.74,1.91.22,4.28-.14,5.25-2.08,1.93-3.86,1.08-8.46.11-12.84a15.91,15.91,0,0,0,7.74-1,6.29,6.29,0,0,0,4.16-2.14c.18-.27.33-.55.49-.83,1.12-2.32.44-5.58-.88-8.82l-.69-7.89,7.38,1.05a25.8,25.8,0,0,0,9,4.52,6.84,6.84,0,0,0,4.39.35h.14l.5-.16.15-.09a2.14,2.14,0,0,0,.43-.13c.58-.39,1.16-.81,1.78-1.14l0,0h0l0,0a9.63,9.63,0,0,0,2.67-3.32,6.35,6.35,0,0,0,.65-2.82,19,19,0,0,0,.11-4.46A51.66,51.66,0,0,0,705,548q-.38-4.13-.74-8.22c0-15.77,1.45-33.48,7.51-39.2,0,0,0,0,.06-.07l2.72-2.34c.65-.62,1.31-1.25,2-1.82,10.81-11.65,50.34-58.49,30.47-101.6a52.26,52.26,0,0,0-8.74-16c-7.48-9.47-16.46-20.42-26.37-28.56a84.74,84.74,0,0,0-10.11-8.37,252.69,252.69,0,0,0-20.19-17.64,5,5,0,0,0-1.95-1.84l-.1-.11c-15.3-13.32-29.76-27.5-40.49-43.37-10.53-15.56-44.75-93-2.54-93.66l.41.44.15.07a8.76,8.76,0,0,1,6.89,11,1.13,1.13,0,0,1,0,.14c0,.11-.06.2-.09.3a10.67,10.67,0,0,1-.53,1.76,7.25,7.25,0,0,1-7.07,4.14,4.33,4.33,0,0,0,1.67,1.91c14.9,9.15,21.07-7.32,18-19.27-6.37-25-46.91-29-66.67-23.58-50.09,13.83-44.5,58.72-23.47,93.64A183.24,183.24,0,0,1,547,230.34c-10.08-16.46-16.84-36.28-16.9-55.68-.06-20.91,14.52-50,38.71-34.93.09.05.18,0,.26.07,1.61-9.67-16.12-14.89-23.79-13a44.48,44.48,0,0,0-7.59,2.64c-22.45,12.14-26.83,40.32-22.95,63.74a145.74,145.74,0,0,0,10.36,34.51,123.13,123.13,0,0,1-21.34-38.42s0,0,0-.06c-7.87-29.46-9.69-58.68-3-88.56,3-13.56,9-26.18,15.87-38.14a93.88,93.88,0,0,1,15.06-19.17l8.35-6.4c6.55-4.68,11.55-5.43,15.18-2.7,8,4.36,12.69,18,10.93,26.11-2.53,11.66-15.75,9.53-19.86,1.12a4.24,4.24,0,0,0-.19,1.52c1,12.81,12.63,14.81,23.27,11.59,12.64-3.82,20.51-15.45,18.83-28.61a27.82,27.82,0,0,0-1.38-5.6c2.45-15.64-8.53-30.41-29.61-37.4-41.27-13.68-84.07,23-107.77,52a125.56,125.56,0,0,0-23,44.26c-5.78-32.25-.23-68.83,17-86.53a4.56,4.56,0,0,0,1.09-1.83c-2.57,1.56-5.16,3-7.74,4.44-8,8.42-15.55,16.57-22.24,25a126.41,126.41,0,0,0-12,71.88c-32.18-26.55-78.05-39.67-94.59-78.91a4.4,4.4,0,0,0-2.09-2.19c-2.78,9.33-6.77,18.62-8.69,27.76-2.34,11.15-4,21.94-3.92,32.66a98.07,98.07,0,0,0,2.67,14.27c6.56,24.18,21.41,45.37,35.95,65.35,13.53,18.58,31.13,40.35,43,63.59a55.2,55.2,0,0,1,.42,15.94c-8.06-20-23.45-37.55-38.65-53.41-16.14-16.84-33.44-32.35-47-51.49-11.59-16.36-15.85-35-17.31-54.27-4.06,30.83-1.14,63.83,12.13,91.63a194.49,194.49,0,0,0,12.19,18.53c4.16,5.52,8.64,10.73,13.16,15.9.39.35.72.74,1.12,1.09a4.49,4.49,0,0,1,1.11,1.47c9.15,10.43,18.26,20.8,25,33.16q2,5.65,4.29,11.25c-22.45-12.23-42.37-29.85-59.08-48.9-22.12-25.22-40-51.16-77-48.16C187,169,173,179.76,168.73,195.24a4.44,4.44,0,0,0-.54.79c-8.32,19.94-.73,38.42,14.25,48.63a24.14,24.14,0,0,0,7.4,1.77c6.19.33,12.38-.31,16.76-3.89a18.1,18.1,0,0,1-12.11-6.45,19.47,19.47,0,0,0,1.84-1.45A14.87,14.87,0,0,0,206.92,229a15.23,15.23,0,0,0,3.25-12,4.27,4.27,0,0,1-1.16-.67,12.24,12.24,0,0,1-11,9.53c-5.85.3-11-6.81-9.24-12.27a14.1,14.1,0,0,1,8.74-8.65,14.09,14.09,0,0,1,10.36-1.9c8.07,1.4,13.82,10.59,17.57,16.93,7.08,12,6.37,28.41,8.41,41.95,2.95,19.56,13.44,34.78,26.52,48.5a73.89,73.89,0,0,0-18-1.27c-11.61-.53-23.14.92-34.23,6.07-16.24,7.55-45.65,40.27-36.79,58.1a24,24,0,0,0-.63,4.17c-1.14.81-2.34,1.47-3.47,2.35-13.54,10.63-32.43,32.41-21.38,51.11a43.21,43.21,0,0,0,21.79,18.34,51.16,51.16,0,0,0,.88,6c1.33,13,7.91,24.68,22.29,31.48.15.07.29.05.44.11a55.69,55.69,0,0,0,6.18,9.38C209.13,510.51,227,514,244.33,512,247.5,510.79,250.74,509.75,253.54,507.82Zm-85.78-69.5c-14.6-8.12-20.41-23.83-3.72-43.71a49.6,49.6,0,0,1,8.11-7.52c2.05,5.77,6.06,11,11.27,15.51C174.94,413.25,169.19,425.54,167.76,438.32ZM215,348.86C236.1,330,264.8,337.44,289,344.43a56.05,56.05,0,0,0,12.46,9,75.94,75.94,0,0,0,9.68,4.51c-36.21,4.32-76-2.79-110.51,6A164.12,164.12,0,0,1,215,348.86ZM197.94,388a4,4,0,0,0-2.51-1.68c-2.56-.56-3.81-1.85-4.27-3.54a4.77,4.77,0,0,0,1.15-6c12.53-4.17,26.21-5.87,38.35-6.6l1.67-.08a93.67,93.67,0,0,0-19,7.55A97.94,97.94,0,0,0,197.94,388Z"/><rect class="cls-2" x="41.89" y="95.41" width="399.52" height="90.64" rx="35.5" ry="35.5" transform="translate(-35.29 101.97) rotate(-22.25)"/><path class="cls-3" d="M119.1,214.49l-4.69-26-9.35,3.83,4.69,26-9.16,3.75L92.11,175a15.69,15.69,0,0,0-4.4,8,16.42,16.42,0,0,0,1.19,9.6,8.59,8.59,0,0,0,2.37,3.57,1.08,1.08,0,0,1,.3.38q-5.16,2.11-7.7-.66a9.18,9.18,0,0,1-1.63-2.74,11.6,11.6,0,0,1-.5-7q1.59-7.72,8.63-14a25.65,25.65,0,0,1,7.41-4.66q1.31-.53,2.6-.92l3.68,20.62,9.35-3.83-3.68-20.62,9.16-3.75,9.37,51.72Z"/><path class="cls-3" d="M144.28,148.49q15.07-6.16,21.73,10.11a43.62,43.62,0,0,1,2.89,22.75,24.52,24.52,0,0,1-6.42,14.09,17.68,17.68,0,0,1-6.08,4.23,19.22,19.22,0,0,1-5.7,1.53q-7.74.48-11.75-9.3a47.92,47.92,0,0,1-3.25-15q-1-13.53,4.6-19.43a10.07,10.07,0,0,1,3.57-2.48,10.56,10.56,0,0,1,3.65-.88q-2.09,2.78-2.58,9.29a59.12,59.12,0,0,0,1.77,19.3,39.61,39.61,0,0,0,1.76,5.55q3,7.36,6.71,5.85l.06,0q3.08-1.26,4.32-7a42.77,42.77,0,0,0,.46-13.37A49.58,49.58,0,0,0,156.73,160q-2.5-6.1-5.24-8T144,152a21,21,0,0,0-11.14,9.83,16,16,0,0,0-.5,14,6.54,6.54,0,0,0,1.34,2.34,2.4,2.4,0,0,1,.71.81,8.65,8.65,0,0,1-5.26.74q-2.16-.53-3.43-3.64a12,12,0,0,1-.44-7.11q1.81-8.43,10-15.19A35.29,35.29,0,0,1,144.28,148.49Z"/><path class="cls-3" d="M203.51,160.74q-3.32-8.11-9.34-5.64a22.36,22.36,0,0,0-2.83,1.41L196.08,183l-9.16,3.75-7.92-44,8.9-5.09L190.69,153l.37-.15a8.82,8.82,0,0,0,5.07-5.92,11.65,11.65,0,0,0-.12-8.15,6.72,6.72,0,0,0-7.08-4.46,12.11,12.11,0,0,0-3.91.95,20,20,0,0,0-3.8,2,17.88,17.88,0,0,0-3.14,2.75,16.47,16.47,0,0,0-4,7.92,16.15,16.15,0,0,0,1.14,9.34,8.59,8.59,0,0,0,2.37,3.57,1.08,1.08,0,0,1,.3.38q-5,2.06-7.61-.51a7.68,7.68,0,0,1-1.58-2.54,12.64,12.64,0,0,1-.7-7.13,21.5,21.5,0,0,1,2.9-7.44,28.89,28.89,0,0,1,14-11.74q6.65-2.72,11.3-1.2a9.83,9.83,0,0,1,6.39,5.78,11.75,11.75,0,0,1,.67,6.25,13.49,13.49,0,0,1-2.91,6.45,9.1,9.1,0,0,1,7.15,1.25,12.87,12.87,0,0,1,4.57,5.93,29.81,29.81,0,0,1,1.57,5.7,19.24,19.24,0,0,1-2.12,13.6,11.81,11.81,0,0,1-5.94,4.75q-4.12,1.68-6.56,0a4.67,4.67,0,0,1-1.62-2.18,11.55,11.55,0,0,1-.69-4q3.08,1.42,5,.62,3.36-1.37,3.46-6A20,20,0,0,0,203.51,160.74Z"/><path class="cls-3" d="M248.77,161.45l-6.45-35.55-5.44,40.41-9.16,3.75L219.23,123a15.69,15.69,0,0,0-4.4,8,16.42,16.42,0,0,0,1.19,9.6,8.59,8.59,0,0,0,2.37,3.57,1.08,1.08,0,0,1,.3.38q-5.16,2.11-7.7-.66a9.18,9.18,0,0,1-1.63-2.74,11.6,11.6,0,0,1-.5-7q1.59-7.72,8.63-14a25.65,25.65,0,0,1,7.41-4.66q1.31-.53,2.6-.92l6.68,36.8,5.22-41.67,9.16-3.75,9.37,51.72Z"/><path class="cls-3" d="M292.48,143.57l-4.69-26-9.35,3.83,4.69,26L274,151.14l-8.48-47.05a15.69,15.69,0,0,0-4.4,8,16.42,16.42,0,0,0,1.19,9.6,8.59,8.59,0,0,0,2.37,3.57,1.08,1.08,0,0,1,.3.38q-5.16,2.11-7.7-.66a9.18,9.18,0,0,1-1.63-2.74,11.6,11.6,0,0,1-.5-7q1.59-7.72,8.63-14a25.65,25.65,0,0,1,7.41-4.66q1.31-.53,2.6-.92l3.68,20.62,9.35-3.83-3.68-20.62,9.16-3.75,9.37,51.72Z"/><path class="cls-3" d="M340.27,125.29q-5.37,2.2-7.05-1.9a40.33,40.33,0,0,1-1.73-9.06,40.22,40.22,0,0,0-1.8-9.22q-1.77-4.32-5.59-2.75a11.84,11.84,0,0,0-2,1.1l4.72,26.07-9.16,3.75L309.2,86.21a15.69,15.69,0,0,0-4.4,8,16.42,16.42,0,0,0,1.19,9.6,8.59,8.59,0,0,0,2.37,3.57,1.08,1.08,0,0,1,.3.38q-5.16,2.11-7.7-.66a9.18,9.18,0,0,1-1.63-2.74,11.6,11.6,0,0,1-.5-7q1.59-7.72,8.63-14a25.65,25.65,0,0,1,7.41-4.66q1.31-.53,2.6-.92l3.71,20.68a47.91,47.91,0,0,1,1.16-13.21q1.51-6.67,3.64-9.32a11.21,11.21,0,0,1,4.27-3.52,5.35,5.35,0,0,1,3.47-.48,4.26,4.26,0,0,1,3,2.33q1.11,2.7.32,4.29a4.58,4.58,0,0,1-2.46,2.28,4,4,0,0,1-4.8-1q-4.57,6-5,19,.75-.38,1.4-.65l1.24-.51q6.37-2.61,9.2,1a11.16,11.16,0,0,1,1.58,2.8,38.24,38.24,0,0,1,1.81,8.87,40.12,40.12,0,0,0,1.46,8q1.44,3.51,4.3,3.43A27.06,27.06,0,0,1,340.27,125.29Z"/><path class="cls-3" d="M362.42,112.42a35.63,35.63,0,0,0,1.76,6.08,6.27,6.27,0,0,0,2.37,3.22,13.8,13.8,0,0,1-5.63,1.4q-3.89-.29-5.67-4.64-2.69-6.59-2-20.79.18-4.43.78-8.91a18.26,18.26,0,0,0-4.52,2.92,4.4,4.4,0,0,0-1.56,3.41q.25-.1.79.42a4.22,4.22,0,0,1,.92,1.45,2.06,2.06,0,0,1-.39,2,5.12,5.12,0,0,1-2.34,1.74,4.45,4.45,0,0,1-3.08.17,3.49,3.49,0,0,1-2.21-2.18q-1.36-3.32,1.35-7.15a18.8,18.8,0,0,1,8.35-6.1q1.27-.52,3.4-1.17,2.91-16.39,9.4-24a13.57,13.57,0,0,1,5.2-3.87,12.59,12.59,0,0,1,5.25-1.09l9.18,50.9L374.59,110l-4.53-25.09a28.54,28.54,0,0,0-9.48,1.2A109.31,109.31,0,0,0,362.42,112.42ZM360.79,82.8a44.71,44.71,0,0,1,8.67-1L366.08,63Q361.83,68.23,360.79,82.8Z"/></svg>