<svg xmlns="http://www.w3.org/2000/svg" viewBox="0 0 300 300"><defs><style>.cls-1{fill:none;stroke-linecap:round;stroke-linejoin:round;stroke-width:7px;}.cls-1,.cls-2{stroke:#39211e;fill-rule:evenodd;}.cls-2{fill:#39211e;stroke-miterlimit:10;}</style></defs><title>маникюр</title><g id="Objects"><path class="cls-1" d="M51.83,79.24C62.12,86.18,66.45,91.34,64,106.06s12.55,35.28,23.21,46.19,21.21,8.34,30.86,12.61,32.15,19.26,42.06,19.54,19.23-11.24,16.76-20.67S154,147.73,144,143.18s-8-25.06-21.31-31.83"/><path class="cls-1" d="M62.48,117.38C48.72,121,26,142.31,13.79,144.66c0,0,16.76-36.18-9.29-62.2,17.44-9.61,29.94-22.74,38.09-28.88C57.93,42,84.45,36,98.35,41.37S124.73,57,134.86,65.43,170.62,102.67,182,118s32.63,34,39,38.89,18.67,30.1,26.11,40,23.54,29.34,9.49,32.11-22.07-10.74-28.32-18.54-13.64-12.84-19.39-19.64-29.82-27.7-37.52-34.25"/><path class="cls-1" d="M152.16,82.79c12.38,10.83,28.67,26,42.2,37.37s27.45,20.83,37.7,32.1,30.73,22.18,37.18,27,21.57,9.49,16.89,18.9-31.65.08-43.44-7.88"/><path class="cls-1" d="M181.41,109c8.24,2.55,67.26,20.89,73,23.64s16.23,2.45,14.76,9.62-12.82,12.74-27.33,4.56c-5.71-3.22-5.89-1.61-22.36-6.7"/><path class="cls-2" d="M157.44,167.44c-3.65,7.37.43,9.37,8.63,14.41,15.5,8.52,24.87-8.75,6.29-16.51C167.49,163.3,160.6,161.08,157.44,167.44Z"/><path class="cls-2" d="M259.91,132.35c-1.54,5.58,9.32,11.63,17.38,9.61S273.5,134.64,259.91,132.35Z"/><path class="cls-2" d="M274.92,180.06c-3.1,6.6,13.29,16.15,21.73,18.25S293.85,190.72,274.92,180.06Z"/><path class="cls-2" d="M256,207.35c-8.42,6.58,1.54,18.84,13.83,26.25S267.17,217.54,256,207.35Z"/><path class="cls-1" d="M186,169.32c4.15,8.2,11,24,16.21,31s12.59,26.71,18,32.58,8.54,19,17.37,24,18-4.47,15.13-12.12-5.66-8.65-7.71-16.63"/><path class="cls-2" d="M250.18,236.64c-8.59-1.66-4.92,22,8.57,23.92C267.58,261.83,258.94,245.44,250.18,236.64Z"/></g></svg>