<svg id="_3" data-name="3" xmlns="http://www.w3.org/2000/svg" viewBox="0 0 300 300"><defs><style>.cls-1{fill:#39211e;}.cls-2{fill:#fff;}</style></defs><title>insta_icon</title><circle class="cls-1" cx="150" cy="150" r="150"/><path class="cls-2" d="M188.34,239H111.66A50.72,50.72,0,0,1,61,188.34V111.66A50.72,50.72,0,0,1,111.66,61h76.68A50.72,50.72,0,0,1,239,111.66v76.68A50.72,50.72,0,0,1,188.34,239ZM111.66,76.26a35.44,35.44,0,0,0-35.41,35.4v76.68a35.45,35.45,0,0,0,35.41,35.41h76.68a35.45,35.45,0,0,0,35.41-35.41V111.66a35.44,35.44,0,0,0-35.41-35.4Z"/><path class="cls-2" d="M150,195.58A45.58,45.58,0,1,1,195.58,150,45.63,45.63,0,0,1,150,195.58Zm0-75.9A30.32,30.32,0,1,0,180.32,150,30.35,30.35,0,0,0,150,119.68Z"/><circle class="cls-2" cx="197.53" cy="101.82" r="10.95"/></svg>