<svg id="Layer_1" data-name="Layer 1" xmlns="http://www.w3.org/2000/svg" viewBox="0 0 300 300"><defs><style>.cls-1{fill:#39211e;}.cls-2{fill:#fff;}</style></defs><title>vk_icon</title><circle class="cls-1" cx="150" cy="150" r="150"/><path class="cls-2" d="M208.87,149s23.45-33,25.78-43.86c.78-3.87-.93-6-5-6H209.33c-4.66,0-6.37,2-7.77,5,0,0-11,23.39-24.39,38.13-4.3,4.76-6.48,6.2-8.85,6.2-1.91,0-2.8-1.59-2.8-5.89V104.82c0-5.27-.62-6.82-5-6.82H127.94c-2.49,0-4,1.44-4,3.41,0,5,7.61,6.08,7.61,19.53v27.74c0,5.58-.31,7.75-3,7.75-7,0-23.61-24-32.93-51.3C93.77,99.55,91.75,98,86.47,98H66.13A4.85,4.85,0,0,0,61,103c0,5.42,6.37,30.53,31.38,64.17C109.15,189.76,131.21,202,151.09,202c12.12,0,15.07-2,15.07-7.13V177.51c0-4.34,1.71-6.2,4.19-6.2,2.8,0,7.73.9,19.26,12.24,13.67,13,14.6,18.44,22.06,18.44H234.5c2.33,0,4.5-1.08,4.5-5,0-5.12-6.68-14.26-16.93-25.11-4.19-5.58-11-11.62-13.2-14.41C205.76,154.26,206.69,152.4,208.87,149Z"/></svg>